NotoSerifTamilSlanted-ExtraCondensedBold.ufo
<glyph name="quotedbl" format="2">
  <advance width="407"/>
  <unicode hex="0022"/>
  <outline>
    <contour>
      <point x="123" y="450" type="line"/>
      <point x="180" y="450" type="line"/>
      <point x="288" y="714" type="line"/>
      <point x="153" y="714" type="line"/>
    </contour>
    <contour>
      <point x="305" y="450" type="line"/>
      <point x="361" y="450" type="line"/>
      <point x="469" y="714" type="line"/>
      <point x="335" y="714" type="line"/>
    </contour>
  </outline>
</glyph>
<glyph name="parenleft" format="2">
  <advance width="333"/>
  <unicode hex="0028"/>
  <outline>
    <contour>
      <point x="221" y="-136" type="curve"/>
      <point x="235" y="-77" type="line"/>
      <point x="189" y="-34"/>
      <point x="173" y="52"/>
      <point x="173" y="128" type="curve" smooth="yes"/>
      <point x="173" y="255"/>
      <point x="222" y="590"/>
      <point x="402" y="711" type="curve"/>
      <point x="413" y="768" type="line"/>
      <point x="165" y="696"/>
      <point x="41" y="410"/>
      <point x="41" y="167" type="curve" smooth="yes"/>
      <point x="41" y="33"/>
      <point x="94" y="-84"/>
    </contour>
  </outline>
</glyph>
<glyph name="eight" format="2">
  <advance width="486"/>
  <unicode hex="0038"/>
  <outline>
    <contour>
      <point x="227" y="-10" type="curve" smooth="yes"/>
      <point x="353" y="-10"/>
      <point x="448" y="60"/>
      <point x="448" y="210" type="curve" smooth="yes"/>
      <point x="448" y="287"/>
      <point x="410" y="340"/>
      <point x="356" y="380" type="curve"/>
      <point x="443" y="428"/>
      <point x="502" y="480"/>
      <point x="502" y="584" type="curve" smooth="yes"/>
      <point x="502" y="664"/>
      <point x="443" y="724"/>
      <point x="342" y="724" type="curve" smooth="yes"/>
      <point x="188" y="724"/>
      <point x="128" y="631"/>
      <point x="128" y="527" type="curve" smooth="yes"/>
      <point x="128" y="462"/>
      <point x="157" y="404"/>
      <point x="199" y="363" type="curve"/>
      <point x="104" y="319"/>
      <point x="31" y="270"/>
      <point x="31" y="154" type="curve" smooth="yes"/>
      <point x="31" y="59"/>
      <point x="106" y="-10"/>
    </contour>
    <contour>
      <point x="225" y="45" type="curve" smooth="yes"/>
      <point x="175" y="45"/>
      <point x="146" y="86"/>
      <point x="146" y="150" type="curve" smooth="yes"/>
      <point x="146" y="238"/>
      <point x="185" y="295"/>
      <point x="248" y="329" type="curve"/>
      <point x="302" y="287"/>
      <point x="331" y="246"/>
      <point x="331" y="183" type="curve" smooth="yes"/>
      <point x="331" y="92"/>
      <point x="282" y="45"/>
    </contour>
    <contour>
      <point x="308" y="411" type="curve"/>
      <point x="268" y="445"/>
      <point x="248" y="486"/>
      <point x="248" y="536" type="curve" smooth="yes"/>
      <point x="248" y="616"/>
      <point x="285" y="668"/>
      <point x="335" y="668" type="curve" smooth="yes"/>
      <point x="374" y="668"/>
      <point x="393" y="630"/>
      <point x="393" y="579" type="curve" smooth="yes"/>
      <point x="393" y="512"/>
      <point x="371" y="455"/>
    </contour>
  </outline>
</glyph>
<glyph name="colon" format="2">
  <advance width="303"/>
  <unicode hex="003A"/>
  <outline>
    <contour>
      <point x="192" y="386" type="curve" smooth="yes"/>
      <point x="229" y="386"/>
      <point x="270" y="409"/>
      <point x="270" y="474" type="curve" smooth="yes"/>
      <point x="270" y="520"/>
      <point x="242" y="541"/>
      <point x="203" y="541" type="curve" smooth="yes"/>
      <point x="157" y="541"/>
      <point x="126" y="505"/>
      <point x="126" y="455" type="curve" smooth="yes"/>
      <point x="126" y="412"/>
      <point x="153" y="386"/>
    </contour>
    <contour>
      <point x="105" y="-8" type="curve" smooth="yes"/>
      <point x="142" y="-8"/>
      <point x="183" y="15"/>
      <point x="183" y="80" type="curve" smooth="yes"/>
      <point x="183" y="126"/>
      <point x="155" y="147"/>
      <point x="116" y="147" type="curve" smooth="yes"/>
      <point x="70" y="147"/>
      <point x="39" y="111"/>
      <point x="39" y="61" type="curve" smooth="yes"/>
      <point x="39" y="18"/>
      <point x="66" y="-8"/>
    </contour>
  </outline>
</glyph>
<glyph name="question" format="2">
  <advance width="438"/>
  <unicode hex="003F"/>
  <outline>
    <contour>
      <point x="169" y="224" type="line"/>
      <point x="225" y="224" type="line"/>
      <point x="258" y="317" type="line"/>
      <point x="378" y="371"/>
      <point x="469" y="447"/>
      <point x="469" y="572" type="curve" smooth="yes"/>
      <point x="469" y="674"/>
      <point x="403.99" y="724"/>
      <point x="296" y="724" type="curve" smooth="yes"/>
      <point x="177" y="724"/>
      <point x="99" y="663"/>
      <point x="99" y="591" type="curve" smooth="yes"/>
      <point x="99" y="545"/>
      <point x="134" y="522"/>
      <point x="205" y="522" type="curve"/>
      <point x="215" y="598"/>
      <point x="236" y="666"/>
      <point x="284" y="666" type="curve" smooth="yes"/>
      <point x="313" y="666"/>
      <point x="334" y="632"/>
      <point x="334" y="573" type="curve" smooth="yes"/>
      <point x="334" y="457"/>
      <point x="267" y="396"/>
      <point x="166" y="351" type="curve"/>
    </contour>
    <contour>
      <point x="167" y="-8" type="curve" smooth="yes"/>
      <point x="204" y="-8"/>
      <point x="245" y="15"/>
      <point x="245" y="80" type="curve" smooth="yes"/>
      <point x="245" y="126"/>
      <point x="217" y="147"/>
      <point x="178" y="147" type="curve" smooth="yes"/>
      <point x="132" y="147"/>
      <point x="101" y="111"/>
      <point x="101" y="61" type="curve" smooth="yes"/>
      <point x="101" y="18"/>
      <point x="128" y="-8"/>
    </contour>
  </outline>
</glyph>
<glyph name="braceright" format="2">
  <advance width="360"/>
  <unicode hex="007D"/>
  <outline>
    <contour>
      <point x="-50" y="-126" type="line"/>
      <point x="14" y="-126" type="line" smooth="yes"/>
      <point x="127" y="-126"/>
      <point x="184" y="-85"/>
      <point x="206" y="20" type="curve" smooth="yes"/>
      <point x="242" y="192" type="line" smooth="yes"/>
      <point x="258" y="270"/>
      <point x="302" y="287"/>
      <point x="355" y="290" type="curve"/>
      <point x="369" y="345" type="line"/>
      <point x="325" y="347"/>
      <point x="291" y="359"/>
      <point x="291" y="410" type="curve" smooth="yes"/>
      <point x="291" y="421"/>
      <point x="293" y="432"/>
      <point x="295" y="443" type="curve" smooth="yes"/>
      <point x="330" y="612" type="line" smooth="yes"/>
      <point x="335" y="634"/>
      <point x="335" y="646"/>
      <point x="335" y="659" type="curve" smooth="yes"/>
      <point x="335" y="718"/>
      <point x="298" y="761"/>
      <point x="220" y="761" type="curve" smooth="yes"/>
      <point x="138" y="761" type="line"/>
      <point x="126" y="711" type="line"/>
      <point x="159" y="711" type="line" smooth="yes"/>
      <point x="190" y="711"/>
      <point x="201" y="694"/>
      <point x="201" y="664" type="curve" smooth="yes"/>
      <point x="201" y="643"/>
      <point x="199" y="628"/>
      <point x="195" y="611" type="curve" smooth="yes"/>
      <point x="163" y="458" type="line" smooth="yes"/>
      <point x="159" y="441"/>
      <point x="154" y="419"/>
      <point x="154" y="406" type="curve" smooth="yes"/>
      <point x="154" y="364"/>
      <point x="175" y="335"/>
      <point x="222" y="321" type="curve"/>
      <point x="220" y="314" type="line"/>
      <point x="153" y="297"/>
      <point x="120" y="257"/>
      <point x="107" y="195" type="curve" smooth="yes"/>
      <point x="70" y="24" type="line" smooth="yes"/>
      <point x="55" y="-44"/>
      <point x="41" y="-75"/>
      <point x="-5" y="-75" type="curve" smooth="yes"/>
      <point x="-38" y="-75" type="line"/>
    </contour>
  </outline>
</glyph>
<glyph name="udatta-deva" format="2">
  <unicode hex="0951"/>
  <anchor x="61" y="565" name="_vedic"/>
  <outline>
    <contour>
      <point x="111" y="937" type="line"/>
      <point x="170" y="937" type="line"/>
      <point x="212" y="1138" type="line"/>
      <point x="154" y="1138" type="line"/>
    </contour>
  </outline>
</glyph>
<glyph name="va-tamil" format="2">
  <advance width="917"/>
  <unicode hex="0BB5"/>
  <note>
uni0BB5
</note>
  <anchor x="426" y="0" name="bottom"/>
  <anchor x="784" y="565" name="imatra"/>
  <anchor x="420" y="0" name="nukta"/>
  <anchor x="523" y="565" name="top"/>
  <anchor x="521" y="565" name="vedic"/>
  <outline>
    <contour>
      <point x="180" y="-5" type="curve" smooth="yes"/>
      <point x="286" y="-5"/>
      <point x="365" y="73"/>
      <point x="365" y="187" type="curve" smooth="yes"/>
      <point x="365" y="270"/>
      <point x="311" y="323"/>
      <point x="242" y="323" type="curve" smooth="yes"/>
      <point x="154" y="323"/>
      <point x="99" y="247"/>
      <point x="60" y="149" type="curve"/>
      <point x="89" y="121" type="line"/>
      <point x="116" y="191"/>
      <point x="143" y="235"/>
      <point x="186" y="235" type="curve" smooth="yes"/>
      <point x="219" y="235"/>
      <point x="235" y="205"/>
      <point x="235" y="163" type="curve" smooth="yes"/>
      <point x="235" y="109"/>
      <point x="208" y="63"/>
      <point x="161" y="63" type="curve" smooth="yes"/>
      <point x="113" y="63"/>
      <point x="88" y="126"/>
      <point x="88" y="195" type="curve" smooth="yes"/>
      <point x="88" y="357"/>
      <point x="193" y="504"/>
      <point x="343" y="504" type="curve" smooth="yes"/>
      <point x="438" y="504"/>
      <point x="493" y="438"/>
      <point x="491" y="327" type="curve" smooth="yes"/>
      <point x="489" y="208"/>
      <point x="451" y="128"/>
      <point x="394" y="44" type="curve"/>
      <point x="408" y="0" type="line"/>
      <point x="795" y="0" type="line"/>
      <point x="915" y="565" type="line"/>
      <point x="774" y="565" type="line"/>
      <point x="667" y="61" type="line"/>
      <point x="491" y="61" type="line"/>
      <point x="580" y="142"/>
      <point x="631" y="228"/>
      <point x="631" y="344" type="curve" smooth="yes"/>
      <point x="631" y="491"/>
      <point x="517" y="570"/>
      <point x="370" y="570" type="curve" smooth="yes"/>
      <point x="172" y="570"/>
      <point x="25" y="392"/>
      <point x="25" y="189" type="curve" smooth="yes"/>
      <point x="25" y="83"/>
      <point x="84" y="-5"/>
    </contour>
  </outline>
</glyph>
<glyph name="two-tamil" format="2">
  <advance width="779"/>
  <unicode hex="0BE8"/>
  <note>
uni0BE8
</note>
  <outline>
    <contour>
      <point x="88" y="0" type="curve" smooth="yes"/>
      <point x="698" y="0" type="line"/>
      <point x="711" y="61" type="line"/>
      <point x="95" y="61" type="line" smooth="yes"/>
      <point x="78" y="61"/>
      <point x="61" y="72"/>
      <point x="61" y="95" type="curve" smooth="yes"/>
      <point x="61" y="122"/>
      <point x="79" y="133"/>
      <point x="99" y="133" type="curve" smooth="yes"/>
      <point x="295" y="133" type="line" smooth="yes"/>
      <point x="454" y="133"/>
      <point x="574" y="223"/>
      <point x="574" y="379" type="curve" smooth="yes"/>
      <point x="574" y="501"/>
      <point x="489" y="570"/>
      <point x="363" y="570" type="curve" smooth="yes"/>
      <point x="212" y="570"/>
      <point x="115" y="446"/>
      <point x="115" y="315" type="curve" smooth="yes"/>
      <point x="115" y="219"/>
      <point x="170" y="151"/>
      <point x="268" y="151" type="curve"/>
      <point x="277" y="191" type="line"/>
      <point x="208" y="191"/>
      <point x="178" y="243"/>
      <point x="178" y="309" type="curve" smooth="yes"/>
      <point x="178" y="406"/>
      <point x="234" y="509"/>
      <point x="337" y="509" type="curve" smooth="yes"/>
      <point x="405" y="509"/>
      <point x="445" y="467"/>
      <point x="445" y="388" type="curve" smooth="yes"/>
      <point x="445" y="274"/>
      <point x="383" y="191"/>
      <point x="284" y="191" type="curve" smooth="yes"/>
      <point x="107" y="191" type="line" smooth="yes"/>
      <point x="44" y="191"/>
      <point x="1" y="153"/>
      <point x="1" y="91" type="curve" smooth="yes"/>
      <point x="1" y="41"/>
      <point x="31" y="0"/>
    </contour>
  </outline>
</glyph>
<glyph name="three-tamil" format="2">
  <advance width="704"/>
  <unicode hex="0BE9"/>
  <note>
uni0BE9
</note>
  <outline>
    <contour>
      <point x="2" y="0" type="line"/>
      <point x="68" y="0" type="line"/>
      <point x="175" y="505" type="line"/>
      <point x="270" y="505" type="line"/>
      <point x="202" y="185" type="line"/>
      <point x="330" y="185" type="line"/>
      <point x="344" y="250" type="line" smooth="yes"/>
      <point x="351" y="283"/>
      <point x="365" y="300"/>
      <point x="388" y="300" type="curve" smooth="yes"/>
      <point x="406" y="300"/>
      <point x="421" y="287"/>
      <point x="421" y="255" type="curve" smooth="yes"/>
      <point x="421" y="156"/>
      <point x="356" y="61"/>
      <point x="274" y="61" type="curve" smooth="yes"/>
      <point x="176" y="61" type="line"/>
      <point x="163" y="0" type="line"/>
      <point x="624" y="0" type="line"/>
      <point x="637" y="61" type="line"/>
      <point x="394" y="61" type="line"/>
      <point x="483" y="93"/>
      <point x="557" y="180"/>
      <point x="557" y="284" type="curve" smooth="yes"/>
      <point x="557" y="353"/>
      <point x="521" y="389"/>
      <point x="463" y="389" type="curve" smooth="yes"/>
      <point x="417" y="389"/>
      <point x="387" y="366"/>
      <point x="368" y="338" type="curve"/>
      <point x="403" y="505" type="line"/>
      <point x="512" y="505" type="line"/>
      <point x="525" y="565" type="line"/>
      <point x="122" y="565" type="line"/>
    </contour>
  </outline>
</glyph>
<glyph name="ten-tamil" format="2">
  <advance width="717"/>
  <unicode hex="0BF0"/>
  <note>
uni0BF0
</note>
  <outline>
    <contour>
      <point x="394" y="-5" type="curve" smooth="yes"/>
      <point x="594" y="-5"/>
      <point x="703" y="242"/>
      <point x="703" y="449" type="curve" smooth="yes"/>
      <point x="703" y="642"/>
      <point x="620" y="791"/>
      <point x="403" y="818" type="curve"/>
      <point x="388" y="754" type="line"/>
      <point x="577" y="733"/>
      <point x="639" y="606"/>
      <point x="639" y="444" type="curve" smooth="yes"/>
      <point x="639" y="287"/>
      <point x="552" y="63"/>
      <point x="433" y="63" type="curve" smooth="yes"/>
      <point x="405" y="63"/>
      <point x="398" y="87"/>
      <point x="404" y="115" type="curve" smooth="yes"/>
      <point x="500" y="565" type="line"/>
      <point x="364" y="565" type="line"/>
      <point x="275" y="146" type="line" smooth="yes"/>
      <point x="257" y="48"/>
      <point x="310" y="-5"/>
    </contour>
    <contour>
      <point x="152" y="-7" type="curve" smooth="yes"/>
      <point x="219" y="-7"/>
      <point x="285" y="30"/>
      <point x="307" y="130" type="curve" smooth="yes"/>
      <point x="322" y="198" type="line"/>
      <point x="286" y="198" type="line"/>
      <point x="272" y="134" type="line" smooth="yes"/>
      <point x="260" y="80"/>
      <point x="239" y="63"/>
      <point x="212" y="63" type="curve" smooth="yes"/>
      <point x="173" y="63"/>
      <point x="170" y="97"/>
      <point x="179" y="137" type="curve" smooth="yes"/>
      <point x="270" y="565" type="line"/>
      <point x="129" y="565" type="line"/>
      <point x="41" y="153" type="line" smooth="yes"/>
      <point x="23" y="67"/>
      <point x="59" y="-7"/>
    </contour>
  </outline>
</glyph>
<glyph name="year-tamil" format="2">
  <advance width="1823"/>
  <unicode hex="0BF5"/>
  <note>
uni0BF5
</note>
  <anchor x="626" y="0" name="bottom"/>
  <anchor x="1148" y="565" name="imatra"/>
  <anchor x="629" y="0" name="nukta"/>
  <anchor x="773" y="565" name="top"/>
  <anchor x="761" y="565" name="vedic"/>
  <outline>
    <contour>
      <point x="617" y="-265" type="curve" smooth="yes"/>
      <point x="975" y="-265"/>
      <point x="1319" y="-108"/>
      <point x="1319" y="206" type="curve" smooth="yes"/>
      <point x="1319" y="298"/>
      <point x="1270" y="350"/>
      <point x="1199" y="350" type="curve" smooth="yes"/>
      <point x="1118" y="350"/>
      <point x="1063" y="286"/>
      <point x="1042" y="188" type="curve" smooth="yes"/>
      <point x="1034" y="150" type="line"/>
      <point x="1057" y="150" type="line"/>
      <point x="1064" y="186" type="line" smooth="yes"/>
      <point x="1073" y="234"/>
      <point x="1092" y="263"/>
      <point x="1134" y="263" type="curve" smooth="yes"/>
      <point x="1168" y="263"/>
      <point x="1187" y="238"/>
      <point x="1187" y="192" type="curve" smooth="yes"/>
      <point x="1187" y="-75"/>
      <point x="921" y="-202"/>
      <point x="620" y="-202" type="curve" smooth="yes"/>
      <point x="304" y="-202"/>
      <point x="96" y="-53"/>
      <point x="96" y="202" type="curve" smooth="yes"/>
      <point x="96" y="567"/>
      <point x="437" y="774"/>
      <point x="862" y="774" type="curve" smooth="yes"/>
      <point x="1210" y="774"/>
      <point x="1497" y="612"/>
      <point x="1421" y="295" type="curve" smooth="yes"/>
      <point x="1393" y="178" type="line" smooth="yes"/>
      <point x="1367" y="68"/>
      <point x="1410" y="-2"/>
      <point x="1517" y="-2" type="curve" smooth="yes"/>
      <point x="1667" y="-2"/>
      <point x="1787" y="145"/>
      <point x="1787" y="369" type="curve" smooth="yes"/>
      <point x="1787" y="443"/>
      <point x="1775" y="505"/>
      <point x="1752" y="566" type="curve"/>
      <point x="1687" y="543" type="line"/>
      <point x="1706" y="489"/>
      <point x="1721" y="425"/>
      <point x="1721" y="361" type="curve" smooth="yes"/>
      <point x="1721" y="195"/>
      <point x="1633" y="71"/>
      <point x="1563" y="71" type="curve" smooth="yes"/>
      <point x="1523" y="71"/>
      <point x="1519" y="113"/>
      <point x="1533" y="172" type="curve" smooth="yes"/>
      <point x="1564" y="302" type="line" smooth="yes"/>
      <point x="1650" y="665"/>
      <point x="1272" y="837"/>
      <point x="870" y="837" type="curve" smooth="yes"/>
      <point x="399" y="837"/>
      <point x="31" y="608"/>
      <point x="31" y="197" type="curve" smooth="yes"/>
      <point x="31" y="-84"/>
      <point x="265" y="-265"/>
    </contour>
    <component base="lla-tamil" xOffset="173"/>
  </outline>
</glyph>
<glyph name="rupee-tamil" format="2">
  <advance width="851"/>
  <unicode hex="0BF9"/>
  <note>
uni0BF9
</note>
  <outline>
    <contour>
      <point x="333" y="-286" type="curve" smooth="yes"/>
      <point x="587" y="-286"/>
      <point x="785" y="-59"/>
      <point x="785" y="203" type="curve" smooth="yes"/>
      <point x="785" y="296"/>
      <point x="747" y="350"/>
      <point x="674" y="350" type="curve" smooth="yes"/>
      <point x="598" y="350"/>
      <point x="549" y="285"/>
      <point x="529" y="190" type="curve" smooth="yes"/>
      <point x="523" y="161" type="line"/>
      <point x="540" y="161" type="line"/>
      <point x="546" y="187" type="line" smooth="yes"/>
      <point x="558" y="237"/>
      <point x="575" y="265"/>
      <point x="609" y="265" type="curve" smooth="yes"/>
      <point x="638" y="265"/>
      <point x="653" y="240"/>
      <point x="653" y="183" type="curve" smooth="yes"/>
      <point x="653" y="-20"/>
      <point x="534" y="-222"/>
      <point x="331" y="-222" type="curve" smooth="yes"/>
      <point x="179" y="-222"/>
      <point x="93" y="-101"/>
      <point x="93" y="144" type="curve" smooth="yes"/>
      <point x="93" y="366"/>
      <point x="235" y="822"/>
      <point x="421" y="822" type="curve" smooth="yes"/>
      <point x="470" y="822"/>
      <point x="496" y="796"/>
      <point x="496" y="748" type="curve" smooth="yes"/>
      <point x="496" y="712"/>
      <point x="475" y="675"/>
      <point x="439" y="675" type="curve" smooth="yes"/>
      <point x="417" y="675"/>
      <point x="402" y="695"/>
      <point x="402" y="735" type="curve" smooth="yes"/>
      <point x="402" y="814"/>
      <point x="457" y="892"/>
      <point x="548" y="892" type="curve" smooth="yes"/>
      <point x="608" y="892"/>
      <point x="650" y="859"/>
      <point x="650" y="798" type="curve" smooth="yes"/>
      <point x="650" y="751"/>
      <point x="627" y="702"/>
      <point x="585" y="662" type="curve"/>
      <point x="600" y="618" type="line"/>
      <point x="752" y="618" type="line"/>
      <point x="764" y="678" type="line"/>
      <point x="635" y="678" type="line"/>
      <point x="612" y="645" type="line"/>
      <point x="674" y="681"/>
      <point x="731" y="739"/>
      <point x="731" y="822" type="curve" smooth="yes"/>
      <point x="731" y="909"/>
      <point x="659" y="952"/>
      <point x="573" y="952" type="curve" smooth="yes"/>
      <point x="460" y="952"/>
      <point x="346" y="840"/>
      <point x="346" y="719" type="curve" smooth="yes"/>
      <point x="346" y="659"/>
      <point x="382" y="613"/>
      <point x="442" y="613" type="curve" smooth="yes"/>
      <point x="518" y="613"/>
      <point x="573" y="676"/>
      <point x="573" y="754" type="curve" smooth="yes"/>
      <point x="573" y="839"/>
      <point x="512" y="880"/>
      <point x="433" y="880" type="curve" smooth="yes"/>
      <point x="191" y="880"/>
      <point x="25" y="414"/>
      <point x="25" y="138" type="curve" smooth="yes"/>
      <point x="25" y="-138"/>
      <point x="137" y="-286"/>
    </contour>
    <contour>
      <point x="189" y="0" type="line"/>
      <point x="253" y="0" type="line"/>
      <point x="360" y="505" type="line"/>
      <point x="472" y="505" type="line"/>
      <point x="365" y="0" type="line"/>
      <point x="506" y="0" type="line"/>
      <point x="613" y="505" type="line"/>
      <point x="729" y="505" type="line"/>
      <point x="741" y="565" type="line"/>
      <point x="309" y="565" type="line"/>
    </contour>
  </outline>
</glyph>
<glyph name="quoteleft" format="2">
  <advance width="232"/>
  <unicode hex="2018"/>
  <outline>
    <contour>
      <point x="169" y="419" type="curve" smooth="yes"/>
      <point x="203" y="419"/>
      <point x="234" y="445"/>
      <point x="234" y="489" type="curve" smooth="yes"/>
      <point x="234" y="541"/>
      <point x="193" y="542"/>
      <point x="193" y="580" type="curve" smooth="yes"/>
      <point x="193" y="619"/>
      <point x="223" y="648"/>
      <point x="281" y="665" type="curve"/>
      <point x="293" y="715" type="line"/>
      <point x="166" y="687"/>
      <point x="100" y="602"/>
      <point x="100" y="503" type="curve" smooth="yes"/>
      <point x="100" y="449"/>
      <point x="129" y="419"/>
    </contour>
  </outline>
</glyph>
<glyph name="ellipsis" format="2">
  <advance width="750"/>
  <unicode hex="2026"/>
  <outline>
    <contour>
      <point x="601" y="-8" type="curve" smooth="yes"/>
      <point x="633" y="-8"/>
      <point x="671" y="14"/>
      <point x="671" y="80" type="curve" smooth="yes"/>
      <point x="671" y="122"/>
      <point x="644" y="144"/>
      <point x="610" y="144" type="curve" smooth="yes"/>
      <point x="568" y="144"/>
      <point x="540" y="110"/>
      <point x="540" y="57" type="curve" smooth="yes"/>
      <point x="540" y="14"/>
      <point x="564" y="-8"/>
    </contour>
    <contour>
      <point x="102" y="-9" type="curve" smooth="yes"/>
      <point x="135" y="-9"/>
      <point x="171" y="13"/>
      <point x="171" y="79" type="curve" smooth="yes"/>
      <point x="171" y="121"/>
      <point x="146" y="144"/>
      <point x="112" y="144" type="curve" smooth="yes"/>
      <point x="69" y="144"/>
      <point x="41" y="109"/>
      <point x="41" y="56" type="curve" smooth="yes"/>
      <point x="41" y="13"/>
      <point x="66" y="-9"/>
    </contour>
    <contour>
      <point x="352" y="-9" type="curve" smooth="yes"/>
      <point x="385" y="-9"/>
      <point x="421" y="13"/>
      <point x="421" y="79" type="curve" smooth="yes"/>
      <point x="421" y="121"/>
      <point x="395" y="144"/>
      <point x="362" y="144" type="curve" smooth="yes"/>
      <point x="320" y="144"/>
      <point x="291" y="109"/>
      <point x="291" y="56" type="curve" smooth="yes"/>
      <point x="291" y="13"/>
      <point x="315" y="-9"/>
    </contour>
  </outline>
</glyph>
<glyph name="foursuperior" format="2">
  <advance width="323"/>
  <unicode hex="2074"/>
  <outline>
    <contour>
      <point x="157" y="387" type="line"/>
      <point x="343" y="387" type="line"/>
      <point x="353" y="428" type="line"/>
      <point x="337" y="428" type="line" smooth="yes"/>
      <point x="322" y="428"/>
      <point x="309" y="431"/>
      <point x="309" y="452" type="curve" smooth="yes"/>
      <point x="309" y="457"/>
      <point x="312" y="473"/>
      <point x="314" y="483" type="curve" smooth="yes"/>
      <point x="320" y="507" type="line"/>
      <point x="374" y="507" type="line"/>
      <point x="387" y="557" type="line"/>
      <point x="329" y="557" type="line"/>
      <point x="384" y="819" type="line"/>
      <point x="312" y="819" type="line"/>
      <point x="90" y="546" type="line"/>
      <point x="81" y="507" type="line"/>
      <point x="239" y="507" type="line"/>
      <point x="231" y="466" type="line"/>
      <point x="224" y="432"/>
      <point x="208" y="428"/>
      <point x="189" y="428" type="curve" smooth="yes"/>
      <point x="167" y="428" type="line"/>
    </contour>
    <contour>
      <point x="152" y="557" type="line"/>
      <point x="254" y="689" type="line" smooth="yes"/>
      <point x="269" y="707"/>
      <point x="282" y="723"/>
      <point x="292" y="739" type="curve"/>
      <point x="285" y="715"/>
      <point x="274" y="677"/>
      <point x="269" y="652" type="curve" smooth="yes"/>
      <point x="250" y="557" type="line"/>
    </contour>
  </outline>
</glyph>
<glyph name=".notdef" format="2">
  <advance width="612"/>
  <outline>
    <contour>
      <point x="87" y="5" type="line"/>
      <point x="498" y="5" type="line"/>
      <point x="498" y="719" type="line"/>
      <point x="87" y="719" type="line"/>
    </contour>
    <contour>
      <point x="138" y="56" type="line"/>
      <point x="138" y="668" type="line"/>
      <point x="447" y="668" type="line"/>
      <point x="447" y="56" type="line"/>
    </contour>
  </outline>
</glyph>
<glyph name="iMatra-tamil.alt01" format="2">
  <advance width="188"/>
  <note>
uni0BBF
</note>
  <anchor x="-4" y="831" name="top"/>
  <outline>
    <contour>
      <point x="3" y="0" type="line"/>
      <point x="68" y="0" type="line"/>
      <point x="190" y="574" type="line" smooth="yes"/>
      <point x="221" y="719"/>
      <point x="148" y="831"/>
      <point x="-4" y="831" type="curve" smooth="yes"/>
      <point x="-125" y="831"/>
      <point x="-210" y="743"/>
      <point x="-210" y="638" type="curve" smooth="yes"/>
      <point x="-210" y="581"/>
      <point x="-178" y="538"/>
      <point x="-136" y="508" type="curve"/>
      <point x="-105" y="537" type="line"/>
      <point x="-123" y="559"/>
      <point x="-136" y="580"/>
      <point x="-136" y="610" type="curve" smooth="yes"/>
      <point x="-136" y="663"/>
      <point x="-97" y="716"/>
      <point x="-12" y="716" type="curve" smooth="yes"/>
      <point x="96" y="716"/>
      <point x="139" y="637"/>
      <point x="118" y="539" type="curve" smooth="yes"/>
    </contour>
  </outline>
</glyph>
<glyph name="iiMatra-tamil.alt02" format="2">
  <note>
uni0BC0
</note>
  <anchor x="-165" y="906" name="top"/>
  <outline>
    <contour>
      <point x="-305" y="509" type="curve"/>
      <point x="-272" y="545" type="line"/>
      <point x="-303" y="570"/>
      <point x="-321" y="618"/>
      <point x="-321" y="667" type="curve" smooth="yes"/>
      <point x="-321" y="758"/>
      <point x="-273" y="843"/>
      <point x="-181" y="843" type="curve" smooth="yes"/>
      <point x="-138" y="843"/>
      <point x="-108" y="815"/>
      <point x="-108" y="767" type="curve" smooth="yes"/>
      <point x="-108" y="720"/>
      <point x="-132" y="680"/>
      <point x="-171" y="680" type="curve" smooth="yes"/>
      <point x="-230" y="680"/>
      <point x="-212" y="795"/>
      <point x="-167" y="866" type="curve"/>
      <point x="-210" y="870" type="line"/>
      <point x="-289" y="753"/>
      <point x="-280" y="607"/>
      <point x="-153" y="607" type="curve" smooth="yes"/>
      <point x="-68" y="607"/>
      <point x="0" y="671"/>
      <point x="0" y="763" type="curve" smooth="yes"/>
      <point x="0" y="855"/>
      <point x="-72" y="906"/>
      <point x="-165" y="906" type="curve" smooth="yes"/>
      <point x="-296" y="906"/>
      <point x="-383" y="789"/>
      <point x="-383" y="669" type="curve" smooth="yes"/>
      <point x="-383" y="604"/>
      <point x="-358" y="548"/>
    </contour>
  </outline>
</glyph>
<glyph name="vii-tamil" format="2">
  <advance width="922"/>
  <note>
g142
</note>
  <anchor x="427" y="0" name="bottom"/>
  <anchor x="421" y="0" name="nukta"/>
  <anchor x="851" y="906" name="top"/>
  <anchor x="522" y="565" name="vedic"/>
  <anchor x="784" y="565" name="imatra"/>
  <outline>
    <contour>
      <point x="777" y="507" type="curve" smooth="yes"/>
      <point x="794" y="507" type="line"/>
      <point x="806" y="565" type="line"/>
      <point x="792" y="565" type="line" smooth="yes"/>
      <point x="735" y="565"/>
      <point x="700" y="603"/>
      <point x="700" y="675" type="curve" smooth="yes"/>
      <point x="700" y="765"/>
      <point x="755" y="843"/>
      <point x="839" y="843" type="curve" smooth="yes"/>
      <point x="885" y="843"/>
      <point x="909" y="813"/>
      <point x="909" y="767" type="curve" smooth="yes"/>
      <point x="909" y="719"/>
      <point x="888" y="680"/>
      <point x="848" y="680" type="curve" smooth="yes"/>
      <point x="789" y="680"/>
      <point x="804" y="790"/>
      <point x="854" y="866" type="curve"/>
      <point x="810" y="870" type="line"/>
      <point x="727" y="750"/>
      <point x="739" y="607"/>
      <point x="865" y="607" type="curve" smooth="yes"/>
      <point x="948" y="607"/>
      <point x="1016" y="671"/>
      <point x="1016" y="760" type="curve" smooth="yes"/>
      <point x="1016" y="856"/>
      <point x="944" y="906"/>
      <point x="851" y="906" type="curve" smooth="yes"/>
      <point x="730" y="906"/>
      <point x="637" y="796"/>
      <point x="637" y="671" type="curve" smooth="yes"/>
      <point x="637" y="569"/>
      <point x="693" y="507"/>
    </contour>
    <component base="va-tamil"/>
  </outline>
</glyph>
<glyph name="vuu-tamil" format="2">
  <advance width="1118"/>
  <note>
g144
</note>
  <anchor x="454" y="0" name="bottom"/>
  <anchor x="405" y="-362" name="nukta"/>
  <anchor x="536" y="565" name="top"/>
  <anchor x="636" y="565" name="vedic"/>
  <anchor x="784" y="565" name="imatra"/>
  <outline>
    <contour>
      <point x="405" y="-362" type="curve" smooth="yes"/>
      <point x="670" y="-362"/>
      <point x="1046" y="-258"/>
      <point x="1046" y="12" type="curve" smooth="yes"/>
      <point x="1046" y="90"/>
      <point x="997" y="135"/>
      <point x="932" y="135" type="curve" smooth="yes"/>
      <point x="856" y="135"/>
      <point x="799" y="83"/>
      <point x="764" y="-26" type="curve"/>
      <point x="788" y="-31" type="line"/>
      <point x="798" y="15"/>
      <point x="823" y="32"/>
      <point x="853" y="32" type="curve" smooth="yes"/>
      <point x="883" y="32"/>
      <point x="901" y="14"/>
      <point x="901" y="-22" type="curve" smooth="yes"/>
      <point x="901" y="-222"/>
      <point x="611" y="-302"/>
      <point x="395" y="-302" type="curve" smooth="yes"/>
      <point x="234" y="-302"/>
      <point x="75" y="-262"/>
      <point x="75" y="-190" type="curve" smooth="yes"/>
      <point x="75" y="-83"/>
      <point x="275" y="-108"/>
      <point x="409" y="-163" type="curve"/>
      <point x="436" y="-105" type="line"/>
      <point x="247" y="-35"/>
      <point x="13" y="-37"/>
      <point x="13" y="-197" type="curve" smooth="yes"/>
      <point x="13" y="-311"/>
      <point x="207" y="-362"/>
    </contour>
    <contour>
      <point x="621" y="-157" type="line"/>
      <point x="761" y="-157" type="line"/>
      <point x="837" y="200" type="line"/>
      <point x="697" y="200" type="line"/>
    </contour>
    <component base="va-tamil"/>
  </outline>
</glyph>
